name rise32.9588peak41.5061fall63.4684.mot
datacolumns 19
datarows 23
range 16.53994000000000 16.57660400000000
endheader
time	ground_force1_vx	ground_force1_vy	ground_force1_vz	ground_force1_px	ground_force1_py	ground_force1_pz	ground_force2_vx	ground_force2_vy	ground_force2_vz	ground_force2_px	ground_force2_py	ground_force2_pz	ground_torque1_x	ground_torque1_y	ground_torque1_z	ground_torque2_x	ground_torque2_y	ground_torque2_z	
16.53994000000000	-51.97620500000000	819.71769800000004	42.05904300000000	0.06491400000000	0.00000000000000	0.10257500000000	0.00000000000000	0.00000000000000	0.00000000000000	0.00000000000000	0.00000000000000	0.00000000000000	0.00000000000000	14.52773900000000	0.00000000000000	0.00000000000000	0.00000000000000	0.00000000000000	
16.54160600000000	-52.42805600000000	817.11686799999995	41.86976700000000	0.06413000000000	0.00000000000000	0.10257100000000	-1.59029100000000	3.60770500000000	1.34117800000000	0.00000000000000	0.00000000000000	0.00000000000000	0.00000000000000	14.50788100000000	0.00000000000000	0.00000000000000	0.43949300000000	0.00000000000000	
16.54328500000000	-52.88993000000000	814.40063999999995	41.66837600000000	0.06334700000000	0.00000000000000	0.10256700000000	-2.57854800000000	6.98530800000000	2.30973800000000	0.00000000000000	0.00000000000000	0.00000000000000	0.00000000000000	14.49063000000000	0.00000000000000	0.00000000000000	0.75552100000000	0.00000000000000	
16.54493800000000	-53.36205400000000	811.56884500000001	41.45481500000000	0.06256700000000	0.00000000000000	0.10256100000000	-3.70339100000000	11.07136000000000	3.43991800000000	0.00000000000000	0.00000000000000	0.00000000000000	0.00000000000000	14.47605400000000	0.00000000000000	0.00000000000000	1.12427600000000	0.00000000000000	
16.54660800000000	-53.84460000000000	808.62126599999999	41.22903700000000	0.06178900000000	0.00000000000000	0.10255400000000	-4.93277800000000	15.82404600000000	4.70779200000000	0.00000000000000	0.00000000000000	0.00000000000000	0.00000000000000	14.46420700000000	0.00000000000000	0.00000000000000	1.53801900000000	0.00000000000000	
16.54827800000000	-54.33767900000000	805.55763300000001	40.99099600000000	0.06101400000000	0.00000000000000	0.10254600000000	-6.22608900000000	21.17053400000000	6.08068100000000	0.00000000000000	0.00000000000000	0.00000000000000	0.00000000000000	14.45513000000000	0.00000000000000	0.00000000000000	1.98618500000000	0.00000000000000	
16.54994200000000	-54.84133900000000	802.37762399999997	40.74065200000000	0.06024100000000	0.00000000000000	0.10253700000000	-7.53678400000000	27.01250600000000	7.51933500000000	0.30292700000000	0.00000000000000	-0.03870500000000	0.00000000000000	14.44885000000000	0.00000000000000	0.00000000000000	4.44220100000000	0.00000000000000	
16.55160400000000	-55.35556200000000	799.08085800000003	40.47797000000000	0.05947200000000	0.00000000000000	0.10252700000000	-8.81579600000000	33.23446100000000	8.98086200000000	0.30458800000000	0.00000000000000	-0.04011000000000	0.00000000000000	14.44538000000000	0.00000000000000	0.00000000000000	5.31581600000000	0.00000000000000	
16.55327200000000	-55.88025900000000	795.66689099999996	40.20291800000000	0.05870500000000	0.00000000000000	0.10251500000000	-10.01522800000000	39.71368100000000	10.42204300000000	0.30620300000000	0.00000000000000	-0.04136700000000	0.00000000000000	14.44471700000000	0.00000000000000	0.00000000000000	6.18278900000000	0.00000000000000	
16.55494200000000	-56.41527000000000	792.13522300000000	39.91546500000000	0.05794200000000	0.00000000000000	0.10250100000000	-11.09184100000000	46.33045000000000	11.80255300000000	0.30777400000000	0.00000000000000	-0.04250100000000	0.00000000000000	14.44684400000000	0.00000000000000	0.00000000000000	7.01994500000000	0.00000000000000	
16.55660600000000	-56.96036200000000	788.48528899999997	39.61559000000000	0.05718200000000	0.00000000000000	0.10248600000000	-12.00990300000000	52.97714800000000	13.08769700000000	0.30930500000000	0.00000000000000	-0.04352900000000	0.00000000000000	14.45172900000000	0.00000000000000	0.00000000000000	7.80723000000000	0.00000000000000	
16.55828400000000	-57.51522200000000	784.71646299999998	39.30327100000000	0.05642600000000	0.00000000000000	0.10246900000000	-12.74310000000000	59.56527100000000	14.25036500000000	0.31079800000000	0.00000000000000	-0.04446700000000	0.00000000000000	14.45932200000000	0.00000000000000	0.00000000000000	8.52886200000000	0.00000000000000	
16.55993400000000	-58.07946200000000	780.82805900000005	38.97849200000000	0.05567400000000	0.00000000000000	0.10245000000000	-13.27542700000000	66.02988499999999	15.27209400000000	0.31225500000000	0.00000000000000	-0.04532800000000	0.00000000000000	14.46955800000000	0.00000000000000	0.00000000000000	9.17398900000000	0.00000000000000	
16.56160100000000	-58.65261100000000	776.81933200000003	38.64124100000000	0.05492600000000	0.00000000000000	0.10242900000000	-13.60110300000000	72.33144500000000	16.14326700000000	0.31367900000000	0.00000000000000	-0.04612100000000	0.00000000000000	14.48235600000000	0.00000000000000	0.00000000000000	9.73683500000000	0.00000000000000	
16.56327600000000	-59.23411800000000	772.68947900000001	38.29151400000000	0.05418300000000	0.00000000000000	0.10240700000000	-13.72366600000000	78.45522300000000	16.86254800000000	0.31507200000000	0.00000000000000	-0.04685600000000	0.00000000000000	14.49761800000000	0.00000000000000	0.00000000000000	10.21640700000000	0.00000000000000	
16.56494000000000	-59.82334700000000	768.43764499999997	37.92931000000000	0.05344500000000	0.00000000000000	0.10238200000000	-13.65445500000000	84.40879500000000	17.43573800000000	0.31643400000000	0.00000000000000	-0.04754000000000	0.00000000000000	14.51523100000000	0.00000000000000	0.00000000000000	10.61586400000000	0.00000000000000	
16.56660000000000	-60.41958000000000	764.06292499999995	37.55463300000000	0.05271200000000	0.00000000000000	0.10235500000000	-13.41070900000000	90.21811200000000	17.87423900000000	0.31776700000000	0.00000000000000	-0.04817800000000	0.00000000000000	14.53506200000000	0.00000000000000	0.00000000000000	10.94163800000000	0.00000000000000	
16.56826600000000	-61.02201300000000	759.56436799999994	37.16749800000000	0.05198500000000	0.00000000000000	0.10232600000000	-13.01351300000000	95.92275400000000	18.19332600000000	0.31907100000000	0.00000000000000	-0.04877700000000	0.00000000000000	14.55696300000000	0.00000000000000	0.00000000000000	11.20245200000000	0.00000000000000	
16.56994100000000	-61.62975700000000	754.94098199999996	36.76792500000000	0.05126400000000	0.00000000000000	0.10229400000000	-12.48578000000000	101.57087300000001	18.41040200000000	0.32034800000000	0.00000000000000	-0.04934000000000	0.00000000000000	14.58077100000000	0.00000000000000	0.00000000000000	11.40830300000000	0.00000000000000	
16.57160700000000	-62.24184100000000	750.19174299999997	36.35594300000000	0.05054900000000	0.00000000000000	0.10226000000000	-11.85043100000000	107.21431100000000	18.54337800000000	0.32159900000000	0.00000000000000	-0.04987200000000	0.00000000000000	14.60630500000000	0.00000000000000	0.00000000000000	11.56952400000000	0.00000000000000	
16.57327200000000	-62.85720500000000	745.31559800000002	35.93159200000000	0.04984100000000	0.00000000000000	0.10222300000000	-11.12887900000000	112.90424700000000	18.60929500000000	0.32282200000000	0.00000000000000	-0.05037500000000	0.00000000000000	14.63336600000000	0.00000000000000	0.00000000000000	11.69596600000000	0.00000000000000	
16.57493400000000	-63.47471000000000	740.31147099999998	35.49492100000000	0.04914000000000	0.00000000000000	0.10218400000000	-10.33989100000000	118.68760899999999	18.62324200000000	0.32401900000000	0.00000000000000	-0.05085300000000	0.00000000000000	14.66174200000000	0.00000000000000	0.00000000000000	11.79636100000000	0.00000000000000	
16.57660400000000	-64.09313200000000	735.17827599999998	35.04599300000000	0.04844600000000	0.00000000000000	0.10214200000000	-9.49884200000000	124.60442200000000	18.59761700000000	0.32519000000000	0.00000000000000	-0.05130900000000	0.00000000000000	14.69120400000000	0.00000000000000	0.00000000000000	11.87787500000000	0.00000000000000	
